 http://www.imdb.com/title/tt1267493/
 
http://www.moviemeter.nl/film/54790

Nederland
Familie
75 minuten

Geregisseerd door Ineke Houtman
Met Bastiaan Ragas, Angelique de Bruijne en Hans Dagelet

De achtjarige Koos wil graag op zijn imposante, blonde vader lijken. Eenvoudig is dat echter niet, aangezien hij is geadopteerd uit Peru en dus klein en donker is. Dan ziet hij voor de supermarkt een Peruaanse jongen die vreemde muziek staat te maken. Zo komt hij erachter dat ook hij van oorsprong een indiaan is. Vanaf dat moment doet hij er alles aan om, ondanks zijn Hollandse ouders, een waarachtig indiaan te zijn..

Info:

General
Complete name                    : De Indiaan-AC3-5,1-DVDRip-2009-Nederlands.avi
Format                           : AVI
Format/Info                      : Audio Video Interleave
File size                        : 1.31 GiB
Duration                         : 1h 19mn
Overall bit rate                 : 2 343 Kbps
Writing application              : VirtualDubMod 1.5.4.1 (build 2178/release)
Writing library                  : VirtualDubMod build 2178/release

Video
ID                               : 0
Format                           : MPEG-4 Visual
Format profile                   : Simple@L3
Format settings, BVOP            : No
Format settings, QPel            : No
Format settings, GMC             : No warppoints
Format settings, Matrix          : Default (H.263)
Codec ID                         : XVID
Codec ID/Hint                    : XviD
Duration                         : 1h 19mn
Bit rate                         : 1 886 Kbps
Width                            : 640 pixels
Height                           : 352 pixels
Display aspect ratio             : 16:9
Frame rate                       : 25.000 fps
Resolution                       : 24 bits
Colorimetry                      : 4:2:0
Scan type                        : Progressive
Bits/(Pixel*Frame)               : 0.335
Stream size                      : 1.05 GiB (80%)
Writing library                  : XviD 1.1.2 (UTC 2006-11-01)

Audio
ID                               : 1
Format                           : AC-3
Format/Info                      : Audio Coding 3
Codec ID                         : 2000
Duration                         : 1h 19mn
Bit rate mode                    : Constant
Bit rate                         : 448 Kbps
Channel(s)                       : 6 channels
Channel positions                : Front: L C R, Surround: L R, LFE
Sampling rate                    : 48.0 KHz
Stream size                      : 256 MiB (19%)
Alignment                        : Split accross interleaves
Interleave, duration             : 40 ms (1.00 video frame)
Interleave, preload duration     : 500 ms

Veel plezier met deze film.